{"title":"Percy.Jackson.&amp;.The.Olympians.2010.SWESUB.x264.AAC.mp4-Zen_Bud","uid":5647579,"size":728553963,"categoryP":"video","categoryS":"movies","magnet":"?xt=urn:btih:37b246f95a078ed4230874d54ec30059c7d21f4c&amp;dn=Percy.Jackson.%26.The.Olympians.2010.SWESUB.x264.AAC.mp4-Zen_Bud&amp;tr=udp%3A%2F%2Ftracker.openbittorrent.com%3A80&amp;tr=udp%3A%2F%2Fopen.demonii.com%3A1337&amp;tr=udp%3A%2F%2Ftracker.coppersurfer.tk%3A6969&amp;tr=udp%3A%2F%2Fexodus.desync.com%3A6969","seeders":0,"leechers":1,"uploader":"Zen_Bud","files":-1,"time":1277396668,"description":"Percy.Jackson.And.The.Olympians.The.Lightning.Thief.mp4\n\n\nFormat                           : MPEG-4\nFile size                        : 695 MiB\nDuration                         : 1h 53mn\nOverall bit rate                 : 854 Kbps\nWriting application              : HandBrake 0.9.4 2009112300\n\nVideo\nID                               : 1\nFormat                           : AVC\nCodec ID                         : mp4\nDuration                         : 1h 53mn\nBit rate                         : 690 Kbps\nWidth                            : 718 pixels\nHeight                           : 436 pixels\nDisplay aspect ratio             : 2.35:1\nFrame rate                       : 25.000 fps\nStream size                      : 561 MiB (81%)\nWriting library                  : x264 core 79\n\nAudio\n\nFormat                           : AAC\nDuration                         : 1h 53mn\nBit rate                         : 160 Kbps\nMaximum bit rate                 : 228 Kbps\nChannel(s)                       : 2 channels\nChannel positions                : Front: L R\nSampling rate                    : 48.0 KHz\nStream size                      : 130 MiB (19%)\nLanguage                         : English\n\n\n","torrent":{"xt":"urn:btih:37b246f95a078ed4230874d54ec30059c7d21f4c","amp;dn":"Percy.Jackson.%26.The.Olympians.2010.SWESUB.x264.AAC.mp4-Zen_Bud","amp;tr":["udp%3A%2F%2Ftracker.openbittorrent.com%3A80","udp%3A%2F%2Fopen.demonii.com%3A1337","udp%3A%2F%2Ftracker.coppersurfer.tk%3A6969","udp%3A%2F%2Fexodus.desync.com%3A6969"],"infoHash":"37b246f95a078ed4230874d54ec30059c7d21f4c","infoHashBuffer":{"type":"Buffer","data":[55,178,70,249,90,7,142,212,35,8,116,213,78,195,0,89,199,210,31,76]},"announce":[],"urlList":[]}}